<?xml version="1.0" encoding="UTF-8"?>
<svg id="Calque_1" data-name="Calque 1" xmlns="http://www.w3.org/2000/svg" viewBox="0 0 547.36 304.12">
  <defs>
    <style>
      .cls-1 {
        fill: #351f65;
      }

      .cls-2 {
        fill: #00a6e2;
      }
    </style>
  </defs>
  <g>
    <g>
      <circle class="cls-1" cx="248.99" cy="77.33" r="3.29"/>
      <path class="cls-1" d="M158.47,71.04c-1.07,0-1.93-.86-1.93-1.93s.87-1.93,1.93-1.93,1.93.87,1.93,1.93-.87,1.93-1.93,1.93Z"/>
      <path class="cls-1" d="M126.87,113.48c-1.86,0-3.37-1.51-3.37-3.37s1.51-3.37,3.37-3.37,3.37,1.51,3.37,3.37-1.51,3.37-3.37,3.37Z"/>
      <circle class="cls-1" cx="145.81" cy="91.28" r="3.67"/>
      <path class="cls-1" d="M182.62,80.08c-2.21,0-4.01-1.79-4.01-4.01s1.8-4.01,4.01-4.01,4.01,1.8,4.01,4.01-1.8,4.01-4.01,4.01Z"/>
      <path class="cls-1" d="M222.28,83.11c-1.94,0-3.52-1.57-3.52-3.52s1.57-3.51,3.52-3.51,3.52,1.57,3.52,3.51-1.57,3.52-3.52,3.52Z"/>
      <path class="cls-1" d="M111.41,175.97c-1.28,0-2.32-1.04-2.32-2.32s1.04-2.32,2.32-2.32,2.32,1.04,2.32,2.32-1.04,2.32-2.32,2.32Z"/>
      <path class="cls-1" d="M151.82,220.38c-1.55,0-2.81-1.26-2.81-2.81s1.26-2.81,2.81-2.81,2.81,1.26,2.81,2.81-1.26,2.81-2.81,2.81Z"/>
      <path class="cls-1" d="M133.76,200.37c-1.8,0-3.26-1.46-3.26-3.26s1.46-3.26,3.26-3.26,3.26,1.46,3.26,3.26-1.46,3.26-3.26,3.26Z"/>
      <path class="cls-1" d="M125.59,148.07c-2.17,0-3.93-1.76-3.93-3.93s1.76-3.93,3.93-3.93,3.93,1.76,3.93,3.93-1.76,3.93-3.93,3.93Z"/>
      <circle class="cls-1" cx="168.21" cy="94.09" r="3.08"/>
      <path class="cls-1" d="M163.4,227.38c-1.39,0-2.51-1.12-2.51-2.51s1.13-2.51,2.51-2.51,2.51,1.13,2.51,2.51-1.13,2.51-2.51,2.51Z"/>
    </g>
    <g>
      <path class="cls-1" d="M179.49,121.84h41.55v11.97h-27.72v10.69h26.68v11.97h-26.68v21.62h-13.82v-56.25Z"/>
      <path class="cls-1" d="M229.88,121.84h28.53c13.42,0,21.54,7.55,21.54,18.08,0,8.12-4.9,14.38-12.94,16.87l10.45,21.29h-15.91l-9.72-20.01h-8.12v20.01h-13.82v-56.25ZM257.6,146.75c5.3,0,8.52-2.73,8.52-6.91,0-3.86-3.21-6.67-8.52-6.67h-13.9v13.58h13.9Z"/>
      <path class="cls-1" d="M305.9,135.02c13.66,0,20.89,9.64,20.89,22.34v2.57h-29.57c.4,5.14,3.7,8.92,9.08,8.92,4.5,0,6.91-2.01,8.04-4.5h12.13c-1.85,8.6-9.8,14.71-20.01,14.71-13.98,0-22.18-9.4-22.18-22.02s8.68-22.02,21.62-22.02ZM314.01,151.49c-.64-4.26-3.7-7.15-8.12-7.15s-7.47,2.97-8.44,7.15h16.55Z"/>
      <path class="cls-1" d="M332.26,160.09h13.42c1.04,4.9,4.58,8.28,10.85,8.28,5.62,0,9.24-2.49,9.24-6.51,0-2.89-1.85-4.74-6.03-5.55l-11.73-2.33c-9.32-1.85-14.54-6.43-14.54-15.75,0-10.12,9.08-17.52,21.94-17.52s21.61,6.83,22.18,18.08h-13.26c-.72-4.18-3.7-7.23-9-7.23s-8.44,1.93-8.44,5.62c0,2.65,1.61,3.86,4.98,4.5l12.78,2.41c9.48,1.77,14.54,7.15,14.54,15.99,0,11.33-9.56,19.12-22.82,19.12s-22.9-7.47-24.11-19.12Z"/>
      <path class="cls-1" d="M387.38,121.84h13.82v22.02h22.98v-22.02h13.82v56.25h-13.82v-22.18h-22.98v22.18h-13.82v-56.25Z"/>
    </g>
    <g>
      <path class="cls-1" d="M179.44,189.96h15.01v2.24h-12.5v7.86h12.06v2.24h-12.06v10.1h-2.5v-22.44Z"/>
      <path class="cls-1" d="M198.72,195.99h2.31v3.94c.61-2.53,2.28-4.14,5.26-4.14.51,0,1.03.03,1.35.13v2.08c-.35-.07-.64-.07-1.09-.07-3.08,0-5.39,2.41-5.39,6.54v7.92h-2.44v-16.42Z"/>
      <path class="cls-1" d="M215.72,202.56l5.29-.35v-.61c0-2.53-1.31-4.04-3.94-4.04-2.34,0-3.75,1.35-4.1,3.08h-2.41c.48-2.98,2.89-5.03,6.48-5.03,4.2,0,6.41,2.41,6.41,5.97v10.84h-2.37v-2.57c-.64,1.6-2.53,2.95-5.32,2.95-3.59,0-5.87-2.12-5.87-5.16s2.24-4.84,5.84-5.07ZM216.07,210.96c2.79,0,4.94-1.95,4.94-5.35v-1.64l-4.36.29c-2.89.19-4.39,1.22-4.39,3.31s1.31,3.4,3.82,3.4Z"/>
      <path class="cls-1" d="M228.75,195.99h2.31v2.82c.77-1.99,2.6-3.21,5.19-3.21,3.85,0,6.03,2.69,6.03,6.77v10.03h-2.44v-9.68c0-3.01-1.28-4.94-4.01-4.94s-4.65,1.86-4.65,5.03v9.59h-2.44v-16.42Z"/>
      <path class="cls-1" d="M254.18,195.61c3.94,0,6.38,2.41,7.12,5.48h-2.4c-.7-1.95-2.18-3.36-4.71-3.36-3.3,0-5.45,3.08-5.45,6.48s2.15,6.48,5.45,6.48c2.53,0,4.01-1.41,4.71-3.36h2.4c-.74,3.08-3.17,5.48-7.12,5.48-4.74,0-7.89-4.1-7.89-8.59s3.14-8.59,7.89-8.59Z"/>
      <path class="cls-1" d="M272.02,195.61c4.9,0,7.44,3.66,7.44,8.05v1.12h-12.7c.16,3.34,2.02,6.03,5.42,6.03,2.47,0,3.88-1.28,4.58-3.01h2.37c-.9,3.01-3.5,5-6.96,5-4.97,0-7.79-3.94-7.79-8.59,0-4.94,3.24-8.59,7.63-8.59ZM277.18,202.82c-.26-3.01-2.05-5.29-5.19-5.29s-4.78,2.37-5.16,5.29h10.35Z"/>
      <path class="cls-1" d="M290.76,195.99h2.31v3.94c.61-2.53,2.27-4.14,5.26-4.14.51,0,1.02.03,1.35.13v2.08c-.35-.07-.64-.07-1.09-.07-3.08,0-5.39,2.41-5.39,6.54v7.92h-2.43v-16.42Z"/>
      <path class="cls-1" d="M309.07,195.61c4.9,0,7.44,3.66,7.44,8.05v1.12h-12.7c.16,3.34,2.02,6.03,5.42,6.03,2.47,0,3.88-1.28,4.58-3.01h2.37c-.9,3.01-3.5,5-6.96,5-4.97,0-7.79-3.94-7.79-8.59,0-4.94,3.24-8.59,7.63-8.59ZM314.23,202.82c-.26-3.01-2.05-5.29-5.19-5.29s-4.78,2.37-5.16,5.29h10.35Z"/>
      <path class="cls-1" d="M327.42,195.61c3.94,0,6.38,2.41,7.12,5.48h-2.4c-.7-1.95-2.18-3.36-4.72-3.36-3.3,0-5.45,3.08-5.45,6.48s2.15,6.48,5.45,6.48c2.53,0,4.01-1.41,4.72-3.36h2.4c-.74,3.08-3.17,5.48-7.12,5.48-4.74,0-7.89-4.1-7.89-8.59s3.14-8.59,7.89-8.59Z"/>
      <path class="cls-1" d="M338.72,189h2.44v9.81c.74-2.05,2.66-3.21,5.07-3.21,3.82,0,6.03,2.63,6.03,6.67v10.13h-2.44v-9.78c0-2.95-1.31-4.84-4.01-4.84s-4.65,1.8-4.65,5.03v9.59h-2.44v-23.41Z"/>
      <path class="cls-1" d="M363.9,195.61c4.9,0,7.44,3.66,7.44,8.05v1.12h-12.7c.16,3.34,2.02,6.03,5.42,6.03,2.47,0,3.88-1.28,4.58-3.01h2.37c-.9,3.01-3.5,5-6.96,5-4.97,0-7.79-3.94-7.79-8.59,0-4.94,3.24-8.59,7.63-8.59ZM369.06,202.82c-.26-3.01-2.05-5.29-5.19-5.29s-4.78,2.37-5.16,5.29h10.35Z"/>
      <path class="cls-1" d="M375.58,195.99h2.31v3.94c.61-2.53,2.27-4.14,5.26-4.14.51,0,1.02.03,1.35.13v2.08c-.35-.07-.64-.07-1.09-.07-3.08,0-5.39,2.41-5.39,6.54v7.92h-2.43v-16.42Z"/>
      <path class="cls-1" d="M394.15,195.61c3.94,0,6.38,2.41,7.12,5.48h-2.4c-.7-1.95-2.18-3.36-4.72-3.36-3.3,0-5.45,3.08-5.45,6.48s2.15,6.48,5.45,6.48c2.53,0,4.01-1.41,4.72-3.36h2.4c-.74,3.08-3.17,5.48-7.12,5.48-4.74,0-7.89-4.1-7.89-8.59s3.14-8.59,7.89-8.59Z"/>
      <path class="cls-1" d="M405.44,189h2.44v9.81c.74-2.05,2.66-3.21,5.07-3.21,3.82,0,6.03,2.63,6.03,6.67v10.13h-2.44v-9.78c0-2.95-1.31-4.84-4.01-4.84s-4.65,1.8-4.65,5.03v9.59h-2.44v-23.41Z"/>
      <path class="cls-1" d="M430.62,195.61c4.91,0,7.44,3.66,7.44,8.05v1.12h-12.69c.16,3.34,2.02,6.03,5.42,6.03,2.47,0,3.88-1.28,4.59-3.01h2.37c-.9,3.01-3.49,5-6.96,5-4.97,0-7.79-3.94-7.79-8.59,0-4.94,3.24-8.59,7.63-8.59ZM435.79,202.82c-.26-3.01-2.05-5.29-5.19-5.29s-4.78,2.37-5.16,5.29h10.36Z"/>
      <path class="cls-1" d="M185.63,227.69c4.9,0,7.44,3.66,7.44,8.05v1.12h-12.7c.16,3.34,2.02,6.03,5.42,6.03,2.47,0,3.88-1.28,4.58-3.01h2.37c-.9,3.01-3.49,5-6.96,5-4.97,0-7.79-3.94-7.79-8.59,0-4.94,3.24-8.59,7.63-8.59ZM190.79,234.9c-.26-3.01-2.05-5.29-5.19-5.29s-4.78,2.37-5.16,5.29h10.36Z"/>
      <path class="cls-1" d="M197.31,228.07h2.31v2.82c.77-1.99,2.6-3.21,5.19-3.21,3.85,0,6.03,2.69,6.03,6.77v10.03h-2.44v-9.68c0-3.01-1.28-4.94-4.01-4.94s-4.65,1.86-4.65,5.03v9.59h-2.44v-16.42Z"/>
      <path class="cls-1" d="M221.85,239.29h2.34c.48,2.15,2.02,3.66,4.81,3.66,2.56,0,4.14-1.32,4.14-3.21,0-1.41-.96-2.31-3.24-2.69l-3.18-.55c-2.85-.48-4.46-1.76-4.46-4.07,0-2.92,2.6-4.75,6.22-4.75s6.09,1.95,6.38,5.03h-2.34c-.32-1.7-1.57-3.11-4.07-3.11-2.31,0-3.91,1-3.91,2.6,0,1.32.74,1.86,2.76,2.21l3.3.58c3.14.55,4.81,1.99,4.81,4.61,0,3.21-2.82,5.26-6.41,5.26-3.98,0-6.51-2.18-7.15-5.58Z"/>
      <path class="cls-1" d="M244.66,234.64l5.29-.35v-.61c0-2.53-1.31-4.04-3.94-4.04-2.34,0-3.75,1.35-4.1,3.08h-2.41c.48-2.98,2.89-5.03,6.48-5.03,4.2,0,6.41,2.41,6.41,5.97v10.84h-2.37v-2.57c-.64,1.6-2.53,2.95-5.32,2.95-3.59,0-5.87-2.12-5.87-5.16s2.24-4.84,5.84-5.07ZM245.01,243.04c2.79,0,4.94-1.95,4.94-5.35v-1.64l-4.36.29c-2.89.19-4.39,1.22-4.39,3.31s1.31,3.4,3.82,3.4Z"/>
      <path class="cls-1" d="M257.68,228.07h2.31v2.82c.77-1.99,2.6-3.21,5.19-3.21,3.85,0,6.03,2.69,6.03,6.77v10.03h-2.44v-9.68c0-3.01-1.28-4.94-4.01-4.94s-4.65,1.86-4.65,5.03v9.59h-2.44v-16.42Z"/>
      <path class="cls-1" d="M277.41,239.55v-9.43h-3.14v-2.05h3.14v-4.36h2.44v4.36h4.87v2.05h-4.87v9.56c0,1.86.9,2.89,2.76,2.89.83,0,1.6-.16,2.15-.32v2.08c-.51.22-1.54.35-2.53.35-3.2,0-4.81-1.76-4.81-5.13Z"/>
      <path class="cls-1" d="M294.89,227.69c4.9,0,7.44,3.66,7.44,8.05v1.12h-12.7c.16,3.34,2.02,6.03,5.42,6.03,2.47,0,3.88-1.28,4.58-3.01h2.37c-.9,3.01-3.5,5-6.96,5-4.97,0-7.79-3.94-7.79-8.59,0-4.94,3.24-8.59,7.63-8.59ZM300.05,234.9c-.26-3.01-2.05-5.29-5.19-5.29s-4.78,2.37-5.16,5.29h10.35ZM294.25,225.89l1.73-4.49h3.08l-3.01,4.49h-1.8Z"/>
      <path class="cls-1" d="M313.63,221.08h2.43v9.81c.74-2.05,2.66-3.21,5.07-3.21,3.81,0,6.03,2.63,6.03,6.67v10.13h-2.44v-9.78c0-2.95-1.32-4.84-4.01-4.84s-4.65,1.8-4.65,5.03v9.59h-2.43v-23.41Z"/>
      <path class="cls-1" d="M332.3,228.07h2.44v9.75c0,3.01,1.25,4.94,3.98,4.94s4.55-1.89,4.55-5.03v-9.65h2.44v16.42h-2.31v-2.76c-.7,1.83-2.5,3.14-5.1,3.14-3.82,0-6-2.69-6-6.77v-10.03Z"/>
      <path class="cls-1" d="M351.16,228.07h2.31v2.82c.74-1.96,2.53-3.21,4.94-3.21,2.57,0,4.3,1.19,5.23,3.08,1-1.86,2.95-3.08,5.48-3.08,3.94,0,6.03,2.63,6.03,6.64v10.16h-2.43v-9.78c0-2.95-1.25-4.84-3.98-4.84s-4.36,1.73-4.36,5.03v9.59h-2.44v-9.78c0-2.95-1.25-4.84-3.94-4.84s-4.39,1.73-4.39,5.03v9.59h-2.44v-16.42Z"/>
      <path class="cls-1" d="M385.65,234.64l5.29-.35v-.61c0-2.53-1.32-4.04-3.94-4.04-2.34,0-3.75,1.35-4.1,3.08h-2.41c.48-2.98,2.89-5.03,6.48-5.03,4.2,0,6.41,2.41,6.41,5.97v10.84h-2.37v-2.57c-.64,1.6-2.53,2.95-5.32,2.95-3.59,0-5.86-2.12-5.86-5.16s2.24-4.84,5.83-5.07ZM386,243.04c2.79,0,4.94-1.95,4.94-5.35v-1.64l-4.36.29c-2.89.19-4.39,1.22-4.39,3.31s1.31,3.4,3.82,3.4Z"/>
      <path class="cls-1" d="M398.77,221.69h2.57v3.3h-2.57v-3.3ZM398.84,228.07h2.44v16.42h-2.44v-16.42Z"/>
      <path class="cls-1" d="M406.89,228.07h2.31v2.82c.77-1.99,2.6-3.21,5.19-3.21,3.85,0,6.03,2.69,6.03,6.77v10.03h-2.44v-9.68c0-3.01-1.28-4.94-4.01-4.94s-4.65,1.86-4.65,5.03v9.59h-2.43v-16.42Z"/>
      <path class="cls-1" d="M432.07,227.69c4.91,0,7.44,3.66,7.44,8.05v1.12h-12.69c.16,3.34,2.02,6.03,5.42,6.03,2.47,0,3.88-1.28,4.59-3.01h2.37c-.9,3.01-3.49,5-6.96,5-4.97,0-7.79-3.94-7.79-8.59,0-4.94,3.24-8.59,7.63-8.59ZM437.23,234.9c-.26-3.01-2.05-5.29-5.19-5.29s-4.78,2.37-5.16,5.29h10.36Z"/>
    </g>
  </g>
  <g>
    <circle class="cls-2" cx="211.45" cy="63.09" r="2.81"/>
    <path class="cls-2" d="M224.58,69.08c-1.64,0-2.97-1.33-2.97-2.97s1.33-2.97,2.97-2.97,2.97,1.33,2.97,2.97-1.33,2.97-2.97,2.97Z"/>
    <path class="cls-2" d="M237.17,74.01c-1.73,0-3.13-1.4-3.13-3.13s1.4-3.13,3.13-3.13,3.13,1.4,3.13,3.13-1.4,3.13-3.13,3.13Z"/>
    <path class="cls-2" d="M259.8,88.8c-1.91,0-3.45-1.55-3.45-3.45s1.55-3.45,3.45-3.45,3.45,1.55,3.45,3.45-1.55,3.45-3.45,3.45Z"/>
    <path class="cls-2" d="M135.17,83.98c-.8,0-1.46-.65-1.46-1.46s.65-1.46,1.46-1.46,1.46.65,1.46,1.46-.65,1.46-1.46,1.46Z"/>
    <path class="cls-2" d="M146.36,76.72c-.94,0-1.69-.76-1.69-1.69s.76-1.69,1.69-1.69,1.69.76,1.69,1.69-.76,1.69-1.69,1.69Z"/>
    <path class="cls-2" d="M171.27,67.06c-1.2,0-2.17-.97-2.17-2.17s.97-2.17,2.17-2.17,2.17.97,2.17,2.17-.97,2.17-2.17,2.17Z"/>
    <path class="cls-2" d="M184.53,64.83c-1.32,0-2.38-1.07-2.38-2.38s1.07-2.38,2.38-2.38,2.38,1.07,2.38,2.38-1.07,2.38-2.38,2.38Z"/>
    <path class="cls-2" d="M197.99,64.44c-1.43,0-2.6-1.16-2.6-2.6s1.16-2.6,2.6-2.6,2.6,1.16,2.6,2.6-1.16,2.6-2.6,2.6Z"/>
    <path class="cls-2" d="M111.53,149.75c-1.55,0-2.81-1.26-2.81-2.81s1.26-2.81,2.81-2.81,2.81,1.26,2.81,2.81-1.26,2.81-2.81,2.81Z"/>
    <path class="cls-2" d="M114.68,136.9c-1.66,0-3-1.34-3-3s1.34-3,3-3,3,1.34,3,3-1.34,3-3,3Z"/>
    <path class="cls-2" d="M119.84,124.71c-1.76,0-3.18-1.42-3.18-3.18s1.42-3.18,3.18-3.18,3.18,1.42,3.18,3.18-1.42,3.18-3.18,3.18Z"/>
    <path class="cls-2" d="M135.6,103.5c-1.96,0-3.55-1.59-3.55-3.55s1.59-3.55,3.55-3.55,3.55,1.59,3.55,3.55-1.59,3.55-3.55,3.55Z"/>
    <path class="cls-2" d="M157.23,88.08c-2.09,0-3.79-1.7-3.79-3.79s1.7-3.78,3.79-3.78,3.78,1.69,3.78,3.78-1.69,3.79-3.78,3.79Z"/>
    <path class="cls-2" d="M169.6,83.08c-2.15,0-3.9-1.75-3.9-3.9s1.74-3.9,3.9-3.9,3.9,1.75,3.9,3.9-1.74,3.9-3.9,3.9Z"/>
    <circle class="cls-2" cx="195.95" cy="75.15" r="3.98"/>
    <path class="cls-2" d="M209.28,80.14c-2.04,0-3.7-1.66-3.7-3.7s1.66-3.7,3.7-3.7,3.7,1.66,3.7,3.7-1.66,3.7-3.7,3.7Z"/>
    <path class="cls-2" d="M234.62,88.07c-1.84,0-3.33-1.49-3.33-3.33s1.49-3.33,3.33-3.33,3.33,1.49,3.33,3.33-1.49,3.33-3.33,3.33Z"/>
    <path class="cls-2" d="M126.54,211.96c-.84,0-1.51-.68-1.51-1.51s.68-1.51,1.51-1.51,1.51.68,1.51,1.51-.68,1.51-1.51,1.51Z"/>
    <path class="cls-2" d="M119.59,200.83c-.99,0-1.79-.8-1.79-1.79s.8-1.79,1.79-1.79,1.79.8,1.79,1.79-.8,1.79-1.79,1.79Z"/>
    <circle class="cls-2" cx="114.5" cy="186.68" r="2.06"/>
    <path class="cls-2" d="M110.42,162.87c-1.42,0-2.57-1.15-2.57-2.57s1.15-2.57,2.57-2.57,2.57,1.15,2.57,2.57-1.15,2.57-2.57,2.57Z"/>
    <circle class="cls-2" cx="141.82" cy="208.2" r="3.04"/>
    <path class="cls-2" d="M127.96,188.18c-1.92,0-3.48-1.56-3.48-3.48s1.56-3.48,3.48-3.48,3.48,1.56,3.48,3.48-1.56,3.48-3.48,3.48Z"/>
    <circle class="cls-2" cx="124.6" cy="171.4" r="3.66"/>
    <path class="cls-2" d="M123.8,161.52c-2.09,0-3.79-1.7-3.79-3.79s1.7-3.79,3.79-3.79,3.79,1.7,3.79,3.79-1.7,3.79-3.79,3.79Z"/>
    <path class="cls-2" d="M129.92,135.19c-2.24,0-4.05-1.81-4.05-4.05s1.81-4.05,4.05-4.05,4.05,1.81,4.05,4.05-1.81,4.05-4.05,4.05Z"/>
    <circle class="cls-2" cx="136.64" cy="119.46" r="3.77"/>
    <path class="cls-2" d="M145.48,112.59c-1.95,0-3.53-1.58-3.53-3.53s1.58-3.53,3.53-3.53,3.53,1.58,3.53,3.53-1.58,3.53-3.53,3.53Z"/>
    <path class="cls-2" d="M156.12,103.79c-1.83,0-3.31-1.48-3.31-3.31s1.48-3.31,3.31-3.31,3.31,1.48,3.31,3.31-1.48,3.31-3.31,3.31Z"/>
    <path class="cls-2" d="M181.29,92.97c-1.58,0-2.86-1.28-2.86-2.86s1.28-2.86,2.86-2.86,2.86,1.28,2.86,2.86-1.28,2.86-2.86,2.86Z"/>
    <path class="cls-2" d="M194.88,91.3c-1.46,0-2.64-1.18-2.64-2.64s1.18-2.64,2.64-2.64,2.64,1.18,2.64,2.64-1.18,2.64-2.64,2.64Z"/>
    <circle class="cls-2" cx="208.51" cy="89.8" r="2.41"/>
  </g>
</svg>